<svg width="479" height="550" viewBox="0 0 479 550" fill="none" xmlns="http://www.w3.org/2000/svg">
<path d="M277.613 210.147C288.84 207.654 299.233 203.459 308.613 197.907C296.489 206.967 282.295 213.664 266.564 217.156C207.213 230.335 148.409 192.992 135.215 133.754C122.017 74.5185 159.421 15.8168 218.765 2.64223C234.507 -0.850306 250.21 -0.790473 265.032 2.28987C254.187 1.22837 242.993 1.82671 231.775 4.31537C174.822 16.9625 138.932 73.2819 151.604 130.12C164.248 186.953 220.676 222.787 277.613 210.147ZM198.204 32.4241C165.888 64.5483 165.777 116.741 197.953 149.007C206.487 157.561 216.436 163.857 227.05 167.886C219.759 164.185 212.924 159.286 206.836 153.189C175.974 122.226 176.079 72.1517 207.087 41.3283C238.111 10.5071 288.274 10.6157 319.154 41.5765C325.241 47.6751 330.117 54.5184 333.806 61.8137C329.804 51.1943 323.541 41.2396 315.004 32.6789C282.824 0.419507 230.536 0.302051 198.204 32.4241ZM317.846 49.9599C292.976 22.7177 250.694 20.7564 223.398 45.5809C216.165 52.1627 210.703 59.9633 207.06 68.3954C210.322 62.6425 214.531 57.2995 219.686 52.6059C245.872 28.7875 286.449 30.6712 310.311 56.8098C334.175 82.9506 332.281 123.447 306.102 147.268C300.942 151.955 295.232 155.651 289.178 158.357C297.923 155.516 306.215 150.816 313.461 144.234C340.751 119.41 342.718 77.1999 317.846 49.9599ZM120.953 187.862C107.18 218.207 71.3759 231.663 40.9714 217.912C10.5737 204.168 -2.9113 168.425 10.8601 138.082C13.5775 132.103 17.1474 126.78 21.359 122.193C14.8563 127.906 9.43475 135.053 5.62725 143.443C-8.72577 175.069 5.32532 212.321 37.0041 226.645C68.6895 240.975 106.007 226.951 120.363 195.319C124.175 186.938 125.98 178.149 125.988 169.508C125.311 175.698 123.673 181.881 120.953 187.862ZM12.2143 163.057C15.8309 188.855 39.7193 206.843 65.557 203.233C72.4038 202.28 78.7156 199.897 84.2081 196.429C80.0099 198.488 75.4143 199.928 70.5278 200.609C45.7269 204.073 22.8154 186.811 19.3475 162.06C15.8775 137.309 33.1722 114.434 57.9664 110.971C62.8551 110.286 67.6705 110.414 72.2728 111.241C66.0343 109.413 59.3162 108.852 52.4605 109.814C26.6184 113.424 8.6022 137.26 12.2143 163.057ZM61.361 114.454C40.3298 116.449 24.9 135.084 26.9026 156.075C27.4354 161.644 29.1338 166.818 31.7424 171.374C30.2261 167.911 29.2226 164.152 28.8496 160.188C26.9314 140.046 41.7329 122.162 61.9138 120.249C82.0901 118.335 100.004 133.109 101.922 153.253C102.3 157.22 102.025 161.101 101.194 164.79C102.888 159.822 103.587 154.421 103.055 148.852C101.059 127.857 82.3921 112.453 61.361 114.454ZM412.965 125.94C370.347 118.614 329.846 147.166 322.495 189.717C320.552 201.003 321.132 212.139 323.84 222.544C322.704 214.887 322.744 206.925 324.133 198.88C331.176 158.056 370.05 130.649 410.949 137.686C451.841 144.71 479.293 183.505 472.255 224.336C470.863 232.376 468.236 239.898 464.611 246.743C470.641 237.832 474.926 227.532 476.868 216.243C484.208 173.697 455.606 133.262 412.965 125.94ZM462.784 194.699C450.327 164.788 415.931 150.619 385.964 163.049C378.018 166.344 371.182 171.182 365.656 177.067C370.068 173.276 375.138 170.109 380.806 167.762C409.561 155.833 442.559 169.433 454.505 198.131C466.458 226.834 452.831 259.769 424.074 271.696C418.41 274.047 412.583 275.401 406.777 275.853C414.863 276.088 423.113 274.672 431.063 271.37C461.037 258.94 475.232 224.616 462.784 194.699ZM447.299 207.696C444.921 201.163 441.242 195.472 436.671 190.803C439.586 194.495 441.979 198.703 443.673 203.359C452.309 226.998 440.101 253.152 416.423 261.772C392.739 270.386 366.551 258.213 357.915 234.575C356.212 229.916 355.33 225.161 355.168 220.465C354.689 226.976 355.544 233.695 357.932 240.232C366.924 264.868 394.233 277.56 418.919 268.571C443.582 259.587 456.306 232.334 447.299 207.696ZM385.964 306.619C362.675 286.499 327.455 289.037 307.301 312.295C301.954 318.458 298.205 325.467 296.011 332.802C298.151 327.716 301.109 322.876 304.912 318.473C324.264 296.173 358.057 293.739 380.404 313.039C402.748 332.339 405.185 366.088 385.85 388.386C382.047 392.774 377.671 396.401 372.931 399.236C379.898 396.031 386.305 391.318 391.651 385.148C411.806 361.893 409.255 326.732 385.964 306.619ZM390.999 366.828C394.42 344.022 378.684 322.755 355.828 319.331C349.769 318.413 343.815 318.859 338.28 320.417C342.369 319.723 346.632 319.652 350.952 320.301C372.865 323.583 387.977 343.998 384.691 365.879C381.399 387.768 360.958 402.852 339.028 399.561C334.708 398.912 330.656 397.596 326.951 395.739C331.793 398.852 337.352 401.02 343.411 401.928C366.264 405.357 387.569 389.642 390.999 366.828ZM376.772 369.075C377.727 364.217 377.576 359.4 376.513 354.872C376.93 358.196 376.834 361.642 376.148 365.099C372.701 382.682 355.637 394.152 338.011 390.706C320.406 387.264 308.919 370.234 312.358 352.647C313.033 349.183 314.245 345.952 315.886 343.032C313.195 346.821 311.237 351.233 310.287 356.102C306.699 374.422 318.665 392.18 337.028 395.763C355.39 399.351 373.182 387.393 376.772 369.075ZM211.119 271.255C208.794 240.596 182.006 217.626 151.302 219.957C143.15 220.567 135.548 222.903 128.817 226.572C133.925 224.458 139.442 223.113 145.246 222.674C174.709 220.44 200.411 242.479 202.644 271.893C204.887 301.307 182.801 326.965 153.334 329.194C147.53 329.629 141.873 329.13 136.51 327.814C143.72 330.42 151.586 331.588 159.73 330.97C190.443 328.647 213.452 301.915 211.119 271.255ZM162.654 236.999C182.233 247.386 189.661 271.652 179.258 291.198C177.202 295.04 174.609 298.418 171.618 301.29C176.178 297.777 180.081 293.259 182.95 287.862C193.8 267.492 186.051 242.207 165.648 231.377C145.248 220.545 119.905 228.283 109.067 248.647C106.189 254.049 104.62 259.789 104.251 265.529C104.962 261.451 106.316 257.416 108.367 253.571C118.773 234.029 143.074 226.61 162.654 236.999ZM130.269 302.892C114.062 295.182 107.18 275.827 114.89 259.65C122.614 243.472 142 236.611 158.207 244.308C161.401 245.828 164.23 247.798 166.663 250.109C163.657 246.561 159.861 243.572 155.374 241.442C138.492 233.416 118.278 240.576 110.234 257.433C102.189 274.289 109.362 294.473 126.255 302.493C130.724 304.631 135.439 305.689 140.091 305.786C136.767 305.363 133.455 304.414 130.269 302.892ZM91.479 348.654C105.499 332.359 130.1 330.509 146.416 344.501C149.626 347.251 152.277 350.427 154.366 353.855C152.001 348.813 148.554 344.168 144.042 340.299C127.032 325.713 101.398 327.652 86.7901 344.632C72.1729 361.611 74.1155 387.196 91.126 401.782C95.6373 405.651 100.757 408.364 106.11 409.931C102.4 408.39 98.8586 406.256 95.6506 403.497C79.3194 389.498 77.459 364.942 91.479 348.654ZM94.0721 387.167C89.3455 371.761 98.0394 355.453 113.474 350.739C116.513 349.813 119.599 349.407 122.603 349.469C118.456 348.942 114.12 349.254 109.853 350.564C93.7635 355.473 84.7121 372.47 89.6296 388.525C94.5516 404.59 111.58 413.616 127.665 408.716C131.932 407.409 135.704 405.257 138.85 402.5C136.387 404.226 133.608 405.607 130.571 406.54C115.134 411.247 98.7854 402.573 94.0721 387.167ZM141.147 363.346C142.65 365.279 143.863 367.468 144.724 369.895C149.089 382.185 142.648 395.688 130.34 400.051C118.027 404.415 104.498 397.979 100.124 385.691C99.2627 383.264 98.8276 380.798 98.7698 378.356C98.4968 381.731 98.9053 385.221 100.113 388.612C104.666 401.43 118.757 408.131 131.599 403.588C144.431 399.045 151.138 384.971 146.587 372.158C145.383 368.758 143.505 365.786 141.147 363.346Z" fill="#419149"/>
<path d="M247.215 472.867C249.027 469.969 255.527 460.005 264.072 451.316C274.201 441.035 299.086 430.691 299.086 430.691C299.086 430.691 276.205 434.578 266.452 440.998C260.416 444.956 250.008 452.794 242.917 458.221C239.451 445.27 236.541 431.216 234.514 416.652C234.214 414.493 233.932 412.324 233.67 410.141C233.65 409.937 233.624 409.742 233.601 409.543C232.553 400.616 231.85 391.533 231.572 382.456C231.561 382.079 231.543 381.715 231.532 381.352C231.483 379.564 231.468 377.793 231.45 376.002C231.441 375.158 231.434 374.307 231.437 373.463C231.437 371.863 231.457 370.258 231.483 368.661C231.506 367.621 231.532 366.582 231.565 365.554C231.614 364.069 231.663 362.584 231.736 361.106C231.792 359.898 231.876 358.697 231.954 357.487C232.021 356.432 232.085 355.371 232.165 354.307C235.038 350.451 250.434 330.307 269.962 314.198C291.655 296.321 335.582 282.963 335.582 282.963C335.582 282.963 296.892 288.591 276.78 294.274C269.01 296.461 253.542 304.939 239.698 313.064C240.375 310.883 241.076 308.702 241.842 306.568C249.171 286.273 259.435 270.712 265.873 257.367C289.115 222.098 311.636 215.23 311.636 215.23C311.636 215.23 267.491 215.126 223.862 299.845C218.895 309.494 215.132 319.552 212.284 329.817C212.279 329.817 212.264 329.835 212.264 329.835L212.275 329.853C211.624 332.193 211.025 334.531 210.477 336.891C210.477 336.873 210.481 336.855 210.481 336.844C210.466 336.915 210.452 336.995 210.434 337.077C207.484 349.751 205.857 362.675 205.295 375.517C199.902 370.139 194.685 365.084 190.766 361.589C177.51 349.742 148.123 337.163 148.123 337.163C148.123 337.163 178.698 359.71 191.348 377.305C197.205 385.445 201.965 393.984 205.417 400.842C206.636 425.354 210.823 448.588 215.372 468.018C215.399 468.116 215.419 468.222 215.441 468.322C216.826 474.217 218.231 479.75 219.606 484.856C219.657 485.051 219.71 485.237 219.763 485.432C220.383 487.744 221 489.969 221.599 492.094C221.662 492.327 221.73 492.568 221.795 492.79C225.407 505.554 228.4 514.778 229.212 518.824C232.764 536.57 208.341 549.167 208.341 549.167H321.411C321.411 549.167 298.431 544.38 274.005 524.553C265.416 517.599 255.387 498.323 247.215 472.867Z" fill="#59615A"/>
</svg>
